<svg xmlns="http://www.w3.org/2000/svg" xmlns:xlink="http://www.w3.org/1999/xlink" viewBox="11092 4566 58 58">
  <defs>
    <style>
      .cls-1 {
        clip-path: url(#clip-Facebook);
      }

      .cls-2 {
        fill: #666;
      }
    </style>
    <clipPath id="clip-Facebook">
      <rect x="11092" y="4566" width="58" height="58"/>
    </clipPath>
  </defs>
  <g id="Facebook" class="cls-1">
    <g id="Group_2713" data-name="Group 2713" transform="translate(5654 2380.106)">
      <path id="Path_5302" data-name="Path 5302" class="cls-2" d="M31.49,2.481a29,29,0,1,0,29,29,29.032,29.032,0,0,0-29-29Zm0,55.14A26.139,26.139,0,1,1,57.631,31.482,26.169,26.169,0,0,1,31.49,57.621Z" transform="translate(5435.509 2183.413)"/>
      <path id="Path_5303" data-name="Path 5303" class="cls-2" d="M29.973,8.068h-6.29a.273.273,0,0,0-.043,0c-6.352.019-7.18,4.456-7.184,8.332a.481.481,0,0,0-.013.112v2.72H12.1a.477.477,0,0,0-.476.476v6.71a.477.477,0,0,0,.476.476h4.346V41.623a.477.477,0,0,0,.476.476h6.343a.475.475,0,0,0,.476-.476V26.9h6.234a.475.475,0,0,0,.476-.476v-6.71a.475.475,0,0,0-.476-.476h-6.71V15.628h6.71a.477.477,0,0,0,.476-.476V8.546a.475.475,0,0,0-.476-.476Z" transform="translate(5445.965 2189.811)"/>
    </g>
  </g>
</svg>
