<svg xmlns="http://www.w3.org/2000/svg" xmlns:xlink="http://www.w3.org/1999/xlink" viewBox="11172 4566 58 58">
  <defs>
    <style>
      .cls-1 {
        clip-path: url(#clip-Instagram);
      }

      .cls-2, .cls-3 {
        fill: #666;
      }

      .cls-3 {
        fill-rule: evenodd;
      }
    </style>
    <clipPath id="clip-Instagram">
      <rect x="11172" y="4566" width="58" height="58"/>
    </clipPath>
  </defs>
  <g id="Instagram" class="cls-1">
    <g id="Group_2712" data-name="Group 2712" transform="translate(5693 2380.106)">
      <path id="Path_5302" data-name="Path 5302" class="cls-2" d="M31.49,2.481a29,29,0,1,0,29,29,29.032,29.032,0,0,0-29-29Zm0,55.14A26.139,26.139,0,1,1,57.631,31.482,26.169,26.169,0,0,1,31.49,57.621Z" transform="translate(5476.508 2183.413)"/>
      <path id="Instagram-2" data-name="Instagram" class="cls-3" d="M33.863,32.471c.022-.118.038-.239.057-.358V10.767c-.018-.117-.033-.234-.055-.351A2.814,2.814,0,0,0,31.54,8.126c-.048-.006-.1-.018-.143-.026H10.923c-.123.023-.248.041-.37.07a2.831,2.831,0,0,0-2.128,2.419c-.007.05-.016.1-.025.149V32.143c.023.136.042.272.071.407a2.81,2.81,0,0,0,2.316,2.2c.054.007.109.018.163.027H31.369c.133-.024.266-.043.4-.073A2.829,2.829,0,0,0,33.863,32.471Zm-22.7-1.636a1.057,1.057,0,0,0,1.014,1.056H30.141a1.056,1.056,0,0,0,1.016-1.06q0-5.916,0-11.83v-.082H28.721a8.7,8.7,0,0,1,.315,3.51,8.407,8.407,0,0,1-1.1,3.325,8.113,8.113,0,0,1-2.325,2.551,7.642,7.642,0,0,1-8.32.375,7.939,7.939,0,0,1-3.082-3.246,8.62,8.62,0,0,1-.618-6.517H11.161v.072Q11.161,24.912,11.161,30.835Zm9.88-3.991a5.292,5.292,0,0,0,5.287-5.284,5.3,5.3,0,0,0-5.169-5.526,5.287,5.287,0,0,0-5.171,5.324A5.307,5.307,0,0,0,21.041,26.844ZM31.157,13.879V11.352a1.054,1.054,0,0,0-1.034-1.085H27.712a1.057,1.057,0,0,0-1.035,1.087c0,.835,0,1.67,0,2.505a1.264,1.264,0,0,0,.061.372,1.031,1.031,0,0,0,1.011.72h1.163c.42,0,.841,0,1.261-.007a1.05,1.05,0,0,0,.981-1.064Zm0,0" transform="translate(5486.066 2193.26)"/>
    </g>
  </g>
</svg>
