<svg xmlns="http://www.w3.org/2000/svg" xmlns:xlink="http://www.w3.org/1999/xlink" width="58" height="58" viewBox="0 0 58 58">
  <defs>
    <clipPath id="clip-path">
      <rect id="Rectangle_5872" data-name="Rectangle 5872" width="62" height="62" transform="translate(0.341 0.341)" fill="#666"/>
    </clipPath>
    <clipPath id="clip-linkedin">
      <rect width="58" height="58"/>
    </clipPath>
  </defs>
  <g id="linkedin" clip-path="url(#clip-linkedin)">
    <rect width="58" height="58" fill="#fff"/>
    <g id="linkedIn-2" data-name="linkedIn" transform="translate(-2.341 -2.341)" clip-path="url(#clip-path)">
      <g id="Facebook" clip-path="url(#clip-path)">
        <g id="icon-facebook" transform="translate(2.573 2.571)">
          <path id="Path_6987" data-name="Path 6987" d="M31.32,2.481A28.831,28.831,0,1,0,60.151,31.312,28.862,28.862,0,0,0,31.32,2.481Zm0,54.817A25.986,25.986,0,1,1,57.308,31.312,26.015,26.015,0,0,1,31.32,57.3Z" transform="translate(-2.491 -2.481)" fill="#666"/>
        </g>
      </g>
      <g id="linkedin-3" data-name="linkedin" transform="translate(16.371 16.405)">
        <path id="Path_7497" data-name="Path 7497" d="M27.729,27.957h.007V17.033c0-5.343-1.151-9.459-7.4-9.459a6.485,6.485,0,0,0-5.841,3.21h-.087V8.073H8.489V27.956h6.167V18.11c0-2.592.491-5.1,3.7-5.1,3.163,0,3.21,2.958,3.21,5.265v9.68Z" transform="translate(2.079 1.825)" fill="#666"/>
        <path id="Path_7498" data-name="Path 7498" d="M.4,7.977H6.574V27.86H.4Z" transform="translate(0.126 1.922)" fill="#666"/>
        <path id="Path_7499" data-name="Path 7499" d="M3.335,0A3.593,3.593,0,1,0,6.912,3.576,3.593,3.593,0,0,0,3.335,0Z" transform="translate(0.275 0)" fill="#666"/>
      </g>
    </g>
  </g>
</svg>
