<svg xmlns="http://www.w3.org/2000/svg" width="250" height="250" viewBox="0 0 250 250">
  <g id="Group_6911" data-name="Group 6911" transform="translate(-884 -160)">
    <g id="Group_6906" data-name="Group 6906" transform="translate(884 160)">
      <g id="lock">
        <circle id="Ellipse_1" data-name="Ellipse 1" cx="125" cy="125" r="125" fill="#0464ad"/>
      </g>
    </g>
    <g id="Group_6907" data-name="Group 6907" transform="translate(952.75 210)">
      <g id="Group_6900" data-name="Group 6900" transform="translate(0 0)">
        <g id="Group_6890" data-name="Group 6890" transform="translate(19.038)">
          <g id="Group_6886" data-name="Group 6886">
            <path id="Path_7903" data-name="Path 7903" d="M260.022,146.454l-.456-4.014a2.835,2.835,0,0,1,1.795-2.964,2.835,2.835,0,0,0,1.094-4.533A38.074,38.074,0,0,0,196,160.326v31.73h19.038v-31.73a19.035,19.035,0,0,1,34.922-10.489,2.816,2.816,0,0,0,3.162,1.126l4.9-1.475A2.834,2.834,0,0,0,260.022,146.454Z" transform="translate(-196 -122.25)" fill="#f3f3f3"/>
          </g>
          <g id="Group_6887" data-name="Group 6887" transform="translate(57.113 37.735)">
            <path id="Path_7904" data-name="Path 7904" d="M297.6,187.8l.479-2.764a2.834,2.834,0,0,0-2.952-3.314l-6.456.364a2.834,2.834,0,0,0-2.675,2.83v28.871h19.038V194.266a2.834,2.834,0,0,0-2.432-2.806l-2.612-.374A2.835,2.835,0,0,1,297.6,187.8Z" transform="translate(-285.999 -181.714)" fill="#f3f3f3"/>
          </g>
          <g id="Group_6888" data-name="Group 6888">
            <path id="Path_7905" data-name="Path 7905" d="M224.557,131.769a9.519,9.519,0,0,1,9.519-9.519A38.076,38.076,0,0,0,196,160.326v31.73h19.038v-31.73a19.037,19.037,0,0,1,19.038-19.038A9.519,9.519,0,0,1,224.557,131.769Z" transform="translate(-196 -122.25)" fill="#f3f3f3"/>
          </g>
          <g id="Group_6901" data-name="Group 6901" transform="translate(8.974)">
            <path id="Path_7903-2" data-name="Path 7903" d="M199.155,146.454l.456-4.014a2.835,2.835,0,0,0-1.795-2.964,2.835,2.835,0,0,1-1.094-4.533,38.074,38.074,0,0,1,66.455,25.383v31.73H244.138v-31.73a19.035,19.035,0,0,0-34.922-10.489,2.816,2.816,0,0,1-3.162,1.126l-4.9-1.475A2.834,2.834,0,0,1,199.155,146.454Z" transform="translate(-196 -122.25)" fill="#f3f3f3"/>
          </g>
        </g>
        <g id="Group_6891" data-name="Group 6891" transform="translate(0 55.527)">
          <path id="Path_7907" data-name="Path 7907" d="M261.189,304.939H185.038A19.038,19.038,0,0,1,166,285.9V228.788a19.037,19.037,0,0,1,19.038-19.038h76.151a19.038,19.038,0,0,1,19.038,19.038V285.9A19.038,19.038,0,0,1,261.189,304.939Z" transform="translate(-166 -209.75)" fill="#ffdd40"/>
        </g>
        <g id="Group_6892" data-name="Group 6892" transform="translate(0 55.527)">
          <path id="Path_7908" data-name="Path 7908" d="M185.038,285.9V228.788a19.038,19.038,0,0,1,19.038-19.038H185.038A19.038,19.038,0,0,0,166,228.788V285.9a19.038,19.038,0,0,0,19.038,19.038h19.038A19.038,19.038,0,0,1,185.038,285.9Z" transform="translate(-166 -209.75)" fill="#ffb332"/>
        </g>
        <g id="Group_6893" data-name="Group 6893" transform="translate(47.595 84.084)">
          <path id="Path_7909" data-name="Path 7909" d="M260.038,264.269a9.519,9.519,0,1,0-14.278,8.235v15.562a4.759,4.759,0,1,0,9.519,0V272.5A9.508,9.508,0,0,0,260.038,264.269Z" transform="translate(-241 -254.75)" fill="#ffb332"/>
        </g>
        <g id="Group_6894" data-name="Group 6894" transform="translate(0 84.084)">
          <path id="Path_7910" data-name="Path 7910" d="M192.97,264.269H166V254.75h26.97a4.759,4.759,0,1,1,0,9.519Z" transform="translate(-166 -254.75)" fill="#ffb332"/>
        </g>
        <g id="Group_6895" data-name="Group 6895" transform="translate(0 112.641)">
          <path id="Path_7911" data-name="Path 7911" d="M192.97,309.269H166V299.75h26.97a4.759,4.759,0,1,1,0,9.519Z" transform="translate(-166 -299.75)" fill="#ffb332"/>
        </g>
        <g id="Group_6896" data-name="Group 6896" transform="translate(0 98.362)">
          <path id="Path_7912" data-name="Path 7912" d="M192.97,286.769H166V277.25h26.97a4.759,4.759,0,1,1,0,9.519Z" transform="translate(-166 -277.25)" fill="#ffb332"/>
        </g>
        <g id="Group_6897" data-name="Group 6897" transform="translate(82.497 84.084)">
          <path id="Path_7913" data-name="Path 7913" d="M300.759,264.269h26.97V254.75h-26.97a4.759,4.759,0,1,0,0,9.519Z" transform="translate(-296 -254.75)" fill="#ffb332"/>
        </g>
        <g id="Group_6898" data-name="Group 6898" transform="translate(82.497 112.641)">
          <path id="Path_7914" data-name="Path 7914" d="M300.759,309.269h26.97V299.75h-26.97a4.759,4.759,0,1,0,0,9.519Z" transform="translate(-296 -299.75)" fill="#ffb332"/>
        </g>
        <g id="Group_6899" data-name="Group 6899" transform="translate(82.497 98.362)">
          <path id="Path_7915" data-name="Path 7915" d="M300.759,286.769h26.97V277.25h-26.97a4.759,4.759,0,1,0,0,9.519Z" transform="translate(-296 -277.25)" fill="#ffb332"/>
        </g>
      </g>
    </g>
  </g>
</svg>
