<svg xmlns="http://www.w3.org/2000/svg" xmlns:xlink="http://www.w3.org/1999/xlink" viewBox="11252 4566 58 58">
  <defs>
    <style>
      .cls-1 {
        clip-path: url(#clip-Twitter);
      }

      .cls-2 {
        fill: #666;
      }
    </style>
    <clipPath id="clip-Twitter">
      <rect x="11252" y="4566" width="58" height="58"/>
    </clipPath>
  </defs>
  <g id="Twitter" class="cls-1">
    <g id="Group_2711" data-name="Group 2711" transform="translate(5731 2380.106)">
      <path id="Path_5304" data-name="Path 5304" class="cls-2" d="M31.49,2.481a29,29,0,1,0,29,29,29.032,29.032,0,0,0-29-29Zm0,55.14A26.139,26.139,0,1,1,57.631,31.482,26.169,26.169,0,0,1,31.49,57.621Z" transform="translate(5518.509 2183.413)"/>
      <path id="Path_5305" data-name="Path 5305" class="cls-2" d="M37.917,13.9a6.288,6.288,0,0,0,3.014-3.561,8.981,8.981,0,0,1-4.28,1.465l-.045.026A6.911,6.911,0,0,0,24.6,16.5a6.994,6.994,0,0,0,.206,1.68l-.034-.049s-7.4.425-14.384-7.212a7.048,7.048,0,0,0,2.2,9.254,7.223,7.223,0,0,1-3.2-.85,7.412,7.412,0,0,0,5.59,6.865,7.016,7.016,0,0,1-3.085.077s.809,4.2,6.4,4.936c-1.427.811-4.087,3.278-10.1,2.815,0,0,4.32,3.548,12.341,3.046a18.929,18.929,0,0,0,16.2-11.608c2.351-5.706,1.7-8.956,1.7-8.956A9.07,9.07,0,0,0,41.738,13c-.624.187-2.939.753-3.8.961l-.026-.06Z" transform="translate(5526.347 2191.774)"/>
    </g>
  </g>
</svg>
