<svg xmlns="http://www.w3.org/2000/svg" xmlns:xlink="http://www.w3.org/1999/xlink" viewBox="11332 4566 58 58">
  <defs>
    <style>
      .cls-1 {
        clip-path: url(#clip-Youtuve);
      }

      .cls-2 {
        fill: #666;
      }
    </style>
    <clipPath id="clip-Youtuve">
      <rect x="11332" y="4566" width="58" height="58"/>
    </clipPath>
  </defs>
  <g id="Youtuve" class="cls-1">
    <g id="Group_2710" data-name="Group 2710" transform="translate(5770 2380.106)">
      <path id="Path_5306" data-name="Path 5306" class="cls-2" d="M31.49,2.481a29,29,0,1,0,29,29,29.032,29.032,0,0,0-29-29Zm0,55.14A26.139,26.139,0,1,1,57.631,31.482,26.169,26.169,0,0,1,31.49,57.621Z" transform="translate(5559.509 2183.413)"/>
      <path id="Path_5307" data-name="Path 5307" class="cls-2" d="M35.936,11.458a95.817,95.817,0,0,0-11.8-.476,88.028,88.028,0,0,0-11.561.476A3.838,3.838,0,0,0,8.739,15.3V27.959A3.838,3.838,0,0,0,12.577,31.8a88.137,88.137,0,0,0,11.571.476A95.661,95.661,0,0,0,35.936,31.8a3.838,3.838,0,0,0,3.838-3.838V15.3A3.838,3.838,0,0,0,35.936,11.458ZM19.557,27.7V15.62l10.466,6.041Z" transform="translate(5566.794 2192.312)"/>
    </g>
  </g>
</svg>
